<?xml version="1.0" encoding="UTF-8" standalone="no"?>
<!DOCTYPE svg PUBLIC "-//W3C//DTD SVG 1.1//EN"
 "http://www.w3.org/Graphics/SVG/1.1/DTD/svg11.dtd">
<!-- Generated by graphviz version 2.47.0 (20210316.0004)
 -->
<!-- Title: dbml Pages: 1 -->
<svg width="1675pt" height="1623pt"
 viewBox="0.00 0.00 1675.23 1622.77" xmlns="http://www.w3.org/2000/svg" xmlns:xlink="http://www.w3.org/1999/xlink">
<g id="graph0" class="graph" transform="scale(1 1) rotate(0) translate(4 1618.77)">
<title>dbml</title>
<!-- users -->
<g id="users" class="node">
<title>users</title>
<ellipse fill="none" stroke="black" stroke-width="0" cx="179.61" cy="-1208.24" rx="179.71" ry="214.92"/>
<polygon fill="#1d71b8" stroke="transparent" points="54.61,-1298.24 54.61,-1358.24 304.61,-1358.24 304.61,-1298.24 54.61,-1298.24"/>
<polygon fill="none" stroke="#29235c" points="54.61,-1298.24 54.61,-1358.24 304.61,-1358.24 304.61,-1298.24 54.61,-1298.24"/>
<text text-anchor="start" x="78.24" y="-1319.44" font-family="Helvetica,sans-Serif" font-weight="bold" font-size="32.00" fill="#ffffff"> &#160;&#160;&#160;&#160;&#160;&#160;users &#160;&#160;&#160;&#160;&#160;&#160;</text>
<polygon fill="#e7e2dd" stroke="transparent" points="54.61,-1238.24 54.61,-1298.24 304.61,-1298.24 304.61,-1238.24 54.61,-1238.24"/>
<polygon fill="none" stroke="#29235c" points="54.61,-1238.24 54.61,-1298.24 304.61,-1298.24 304.61,-1238.24 54.61,-1238.24"/>
<text text-anchor="start" x="65.61" y="-1258.44" font-family="Helvetica,sans-Serif" font-size="32.00" fill="#29235c">id &#160;&#160;&#160;</text>
<text text-anchor="start" x="130.05" y="-1259.44" font-family="Helvetica,sans-Serif" font-style="italic" font-size="32.00" fill="#29235c">varchar(16)</text>
<polygon fill="#e7e2dd" stroke="transparent" points="54.61,-1178.24 54.61,-1238.24 304.61,-1238.24 304.61,-1178.24 54.61,-1178.24"/>
<polygon fill="none" stroke="#29235c" points="54.61,-1178.24 54.61,-1238.24 304.61,-1238.24 304.61,-1178.24 54.61,-1178.24"/>
<text text-anchor="start" x="65.19" y="-1198.44" font-family="Helvetica,sans-Serif" font-size="32.00" fill="#29235c">username &#160;&#160;&#160;</text>
<text text-anchor="start" x="242.32" y="-1199.44" font-family="Helvetica,sans-Serif" font-style="italic" font-size="32.00" fill="#29235c">text</text>
<polygon fill="#e7e2dd" stroke="transparent" points="54.61,-1118.24 54.61,-1178.24 304.61,-1178.24 304.61,-1118.24 54.61,-1118.24"/>
<polygon fill="none" stroke="#29235c" points="54.61,-1118.24 54.61,-1178.24 304.61,-1178.24 304.61,-1118.24 54.61,-1118.24"/>
<text text-anchor="start" x="65.61" y="-1138.44" font-family="Helvetica,sans-Serif" font-size="32.00" fill="#29235c">password &#160;&#160;&#160;</text>
<text text-anchor="start" x="242.03" y="-1139.44" font-family="Helvetica,sans-Serif" font-style="italic" font-size="32.00" fill="#29235c">text</text>
<polygon fill="#e7e2dd" stroke="transparent" points="54.61,-1058.24 54.61,-1118.24 304.61,-1118.24 304.61,-1058.24 54.61,-1058.24"/>
<polygon fill="none" stroke="#29235c" points="54.61,-1058.24 54.61,-1118.24 304.61,-1118.24 304.61,-1058.24 54.61,-1058.24"/>
<text text-anchor="start" x="65.61" y="-1078.44" font-family="Helvetica,sans-Serif" font-size="32.00" fill="#29235c">fullname &#160;&#160;&#160;</text>
<text text-anchor="start" x="242.03" y="-1079.44" font-family="Helvetica,sans-Serif" font-style="italic" font-size="32.00" fill="#29235c">text</text>
<polygon fill="none" stroke="#29235c" stroke-width="2" points="53.61,-1057.24 53.61,-1359.24 305.61,-1359.24 305.61,-1057.24 53.61,-1057.24"/>
</g>
<!-- playlists -->
<g id="playlists" class="node">
<title>playlists</title>
<ellipse fill="none" stroke="black" stroke-width="0" cx="677.35" cy="-1238.24" rx="186.85" ry="172.57"/>
<polygon fill="#1d71b8" stroke="transparent" points="547.35,-1298.24 547.35,-1358.24 807.35,-1358.24 807.35,-1298.24 547.35,-1298.24"/>
<polygon fill="none" stroke="#29235c" points="547.35,-1298.24 547.35,-1358.24 807.35,-1358.24 807.35,-1298.24 547.35,-1298.24"/>
<text text-anchor="start" x="558.21" y="-1319.44" font-family="Helvetica,sans-Serif" font-weight="bold" font-size="32.00" fill="#ffffff"> &#160;&#160;&#160;&#160;&#160;&#160;playlists &#160;&#160;&#160;&#160;&#160;&#160;</text>
<polygon fill="#e7e2dd" stroke="transparent" points="547.35,-1238.24 547.35,-1298.24 807.35,-1298.24 807.35,-1238.24 547.35,-1238.24"/>
<polygon fill="none" stroke="#29235c" points="547.35,-1238.24 547.35,-1298.24 807.35,-1298.24 807.35,-1238.24 547.35,-1238.24"/>
<text text-anchor="start" x="558.35" y="-1259.44" font-family="Helvetica,sans-Serif" font-weight="bold" font-size="32.00" fill="#29235c">id</text>
<text text-anchor="start" x="583.24" y="-1259.44" font-family="Helvetica,sans-Serif" font-size="32.00" fill="#29235c"> &#160;&#160;&#160;</text>
<text text-anchor="start" x="762.56" y="-1259.44" font-family="Helvetica,sans-Serif" font-style="italic" font-size="32.00" fill="#29235c">int</text>
<polygon fill="#e7e2dd" stroke="transparent" points="547.35,-1178.24 547.35,-1238.24 807.35,-1238.24 807.35,-1178.24 547.35,-1178.24"/>
<polygon fill="none" stroke="#29235c" points="547.35,-1178.24 547.35,-1238.24 807.35,-1238.24 807.35,-1178.24 547.35,-1178.24"/>
<text text-anchor="start" x="558.35" y="-1198.44" font-family="Helvetica,sans-Serif" font-size="32.00" fill="#29235c">owner_id &#160;&#160;&#160;</text>
<text text-anchor="start" x="762.56" y="-1199.44" font-family="Helvetica,sans-Serif" font-style="italic" font-size="32.00" fill="#29235c">int</text>
<polygon fill="#e7e2dd" stroke="transparent" points="547.35,-1118.24 547.35,-1178.24 807.35,-1178.24 807.35,-1118.24 547.35,-1118.24"/>
<polygon fill="none" stroke="#29235c" points="547.35,-1118.24 547.35,-1178.24 807.35,-1178.24 807.35,-1118.24 547.35,-1118.24"/>
<text text-anchor="start" x="558.35" y="-1138.44" font-family="Helvetica,sans-Serif" font-size="32.00" fill="#29235c">name &#160;&#160;&#160;</text>
<text text-anchor="start" x="744.77" y="-1139.44" font-family="Helvetica,sans-Serif" font-style="italic" font-size="32.00" fill="#29235c">text</text>
<polygon fill="none" stroke="#29235c" stroke-width="2" points="546.35,-1117.24 546.35,-1359.24 808.35,-1359.24 808.35,-1117.24 546.35,-1117.24"/>
</g>
<!-- users&#45;&gt;playlists -->
<!-- users&#45;&gt;playlists -->
<g id="edge16" class="edge">
<title>users:e&#45;&gt;playlists:w</title>
<path fill="none" stroke="#29235c" stroke-width="3" d="M305.61,-1268.24C412.43,-1268.24 434.73,-1211.93 536.27,-1208.41"/>
<polygon fill="#29235c" stroke="#29235c" stroke-width="3" points="536.41,-1211.91 546.35,-1208.24 536.29,-1204.91 536.41,-1211.91"/>
<text text-anchor="middle" x="552.57" y="-1179.44" font-family="Helvetica,sans-Serif" font-size="32.00" fill="#29235c">*</text>
<text text-anchor="middle" x="296.71" y="-1239.44" font-family="Helvetica,sans-Serif" font-size="32.00" fill="#29235c">1</text>
</g>
<!-- user_album_likes -->
<g id="user_album_likes" class="node">
<title>user_album_likes</title>
<ellipse fill="none" stroke="black" stroke-width="0" cx="677.35" cy="-875.24" rx="282.27" ry="172.57"/>
<polygon fill="#1d71b8" stroke="transparent" points="480.35,-935.24 480.35,-995.24 875.35,-995.24 875.35,-935.24 480.35,-935.24"/>
<polygon fill="none" stroke="#29235c" points="480.35,-935.24 480.35,-995.24 875.35,-995.24 875.35,-935.24 480.35,-935.24"/>
<text text-anchor="start" x="491.14" y="-956.44" font-family="Helvetica,sans-Serif" font-weight="bold" font-size="32.00" fill="#ffffff"> &#160;&#160;&#160;&#160;&#160;&#160;user_album_likes &#160;&#160;&#160;&#160;&#160;&#160;</text>
<polygon fill="#e7e2dd" stroke="transparent" points="480.35,-875.24 480.35,-935.24 875.35,-935.24 875.35,-875.24 480.35,-875.24"/>
<polygon fill="none" stroke="#29235c" points="480.35,-875.24 480.35,-935.24 875.35,-935.24 875.35,-875.24 480.35,-875.24"/>
<text text-anchor="start" x="491.35" y="-896.44" font-family="Helvetica,sans-Serif" font-weight="bold" font-size="32.00" fill="#29235c">id</text>
<text text-anchor="start" x="516.24" y="-896.44" font-family="Helvetica,sans-Serif" font-size="32.00" fill="#29235c"> &#160;&#160;&#160;</text>
<text text-anchor="start" x="830.56" y="-896.44" font-family="Helvetica,sans-Serif" font-style="italic" font-size="32.00" fill="#29235c">int</text>
<polygon fill="#e7e2dd" stroke="transparent" points="480.35,-815.24 480.35,-875.24 875.35,-875.24 875.35,-815.24 480.35,-815.24"/>
<polygon fill="none" stroke="#29235c" points="480.35,-815.24 480.35,-875.24 875.35,-875.24 875.35,-815.24 480.35,-815.24"/>
<text text-anchor="start" x="491.35" y="-835.44" font-family="Helvetica,sans-Serif" font-size="32.00" fill="#29235c">user_id &#160;&#160;&#160;</text>
<text text-anchor="start" x="830.56" y="-836.44" font-family="Helvetica,sans-Serif" font-style="italic" font-size="32.00" fill="#29235c">int</text>
<polygon fill="#e7e2dd" stroke="transparent" points="480.35,-755.24 480.35,-815.24 875.35,-815.24 875.35,-755.24 480.35,-755.24"/>
<polygon fill="none" stroke="#29235c" points="480.35,-755.24 480.35,-815.24 875.35,-815.24 875.35,-755.24 480.35,-755.24"/>
<text text-anchor="start" x="491.35" y="-775.44" font-family="Helvetica,sans-Serif" font-size="32.00" fill="#29235c">album_id &#160;&#160;&#160;</text>
<text text-anchor="start" x="830.56" y="-776.44" font-family="Helvetica,sans-Serif" font-style="italic" font-size="32.00" fill="#29235c">int</text>
<polygon fill="none" stroke="#29235c" stroke-width="2" points="478.85,-754.24 478.85,-996.24 875.85,-996.24 875.85,-754.24 478.85,-754.24"/>
</g>
<!-- users&#45;&gt;user_album_likes -->
<!-- users&#45;&gt;user_album_likes -->
<g id="edge18" class="edge">
<title>users:e&#45;&gt;user_album_likes:w</title>
<path fill="none" stroke="#29235c" stroke-width="3" d="M305.61,-1268.24C403.75,-1268.24 379.59,-873.66 469.37,-846.69"/>
<polygon fill="#29235c" stroke="#29235c" stroke-width="3" points="469.95,-850.14 479.35,-845.24 468.95,-843.21 469.95,-850.14"/>
<text text-anchor="middle" x="485.57" y="-816.44" font-family="Helvetica,sans-Serif" font-size="32.00" fill="#29235c">*</text>
<text text-anchor="middle" x="314.5" y="-1239.44" font-family="Helvetica,sans-Serif" font-size="32.00" fill="#29235c">1</text>
</g>
<!-- collaborations -->
<g id="collaborations" class="node">
<title>collaborations</title>
<ellipse fill="none" stroke="black" stroke-width="0" cx="1331.36" cy="-1442.24" rx="245.23" ry="172.57"/>
<polygon fill="#1d71b8" stroke="transparent" points="1160.36,-1502.24 1160.36,-1562.24 1503.36,-1562.24 1503.36,-1502.24 1160.36,-1502.24"/>
<polygon fill="none" stroke="#29235c" points="1160.36,-1502.24 1160.36,-1562.24 1503.36,-1562.24 1503.36,-1502.24 1160.36,-1502.24"/>
<text text-anchor="start" x="1170.92" y="-1523.44" font-family="Helvetica,sans-Serif" font-weight="bold" font-size="32.00" fill="#ffffff"> &#160;&#160;&#160;&#160;&#160;&#160;collaborations &#160;&#160;&#160;&#160;&#160;&#160;</text>
<polygon fill="#e7e2dd" stroke="transparent" points="1160.36,-1442.24 1160.36,-1502.24 1503.36,-1502.24 1503.36,-1442.24 1160.36,-1442.24"/>
<polygon fill="none" stroke="#29235c" points="1160.36,-1442.24 1160.36,-1502.24 1503.36,-1502.24 1503.36,-1442.24 1160.36,-1442.24"/>
<text text-anchor="start" x="1171.36" y="-1463.44" font-family="Helvetica,sans-Serif" font-weight="bold" font-size="32.00" fill="#29235c">id</text>
<text text-anchor="start" x="1196.25" y="-1463.44" font-family="Helvetica,sans-Serif" font-size="32.00" fill="#29235c"> &#160;&#160;&#160;</text>
<text text-anchor="start" x="1458.57" y="-1463.44" font-family="Helvetica,sans-Serif" font-style="italic" font-size="32.00" fill="#29235c">int</text>
<polygon fill="#e7e2dd" stroke="transparent" points="1160.36,-1382.24 1160.36,-1442.24 1503.36,-1442.24 1503.36,-1382.24 1160.36,-1382.24"/>
<polygon fill="none" stroke="#29235c" points="1160.36,-1382.24 1160.36,-1442.24 1503.36,-1442.24 1503.36,-1382.24 1160.36,-1382.24"/>
<text text-anchor="start" x="1171.36" y="-1402.44" font-family="Helvetica,sans-Serif" font-size="32.00" fill="#29235c">playlist_id &#160;&#160;&#160;</text>
<text text-anchor="start" x="1458.57" y="-1403.44" font-family="Helvetica,sans-Serif" font-style="italic" font-size="32.00" fill="#29235c">int</text>
<polygon fill="#e7e2dd" stroke="transparent" points="1160.36,-1322.24 1160.36,-1382.24 1503.36,-1382.24 1503.36,-1322.24 1160.36,-1322.24"/>
<polygon fill="none" stroke="#29235c" points="1160.36,-1322.24 1160.36,-1382.24 1503.36,-1382.24 1503.36,-1322.24 1160.36,-1322.24"/>
<text text-anchor="start" x="1171.36" y="-1342.44" font-family="Helvetica,sans-Serif" font-size="32.00" fill="#29235c">user_id &#160;&#160;&#160;</text>
<text text-anchor="start" x="1458.57" y="-1343.44" font-family="Helvetica,sans-Serif" font-style="italic" font-size="32.00" fill="#29235c">int</text>
<polygon fill="none" stroke="#29235c" stroke-width="2" points="1158.86,-1321.24 1158.86,-1563.24 1503.86,-1563.24 1503.86,-1321.24 1158.86,-1321.24"/>
</g>
<!-- users&#45;&gt;collaborations -->
<!-- users&#45;&gt;collaborations -->
<g id="edge14" class="edge">
<title>users:e&#45;&gt;collaborations:w</title>
<path fill="none" stroke="#29235c" stroke-width="3" d="M305.61,-1268.24C384.03,-1268.24 327.12,-1381.34 395.21,-1420.24 504.09,-1482.44 835.77,-1440.71 959.48,-1420.24 1048.62,-1405.49 1064.41,-1356.1 1149.23,-1352.45"/>
<polygon fill="#29235c" stroke="#29235c" stroke-width="3" points="1149.43,-1355.95 1159.36,-1352.24 1149.29,-1348.95 1149.43,-1355.95"/>
<text text-anchor="middle" x="1165.58" y="-1361.84" font-family="Helvetica,sans-Serif" font-size="32.00" fill="#29235c">*</text>
<text text-anchor="middle" x="296.71" y="-1277.84" font-family="Helvetica,sans-Serif" font-size="32.00" fill="#29235c">1</text>
</g>
<!-- songs -->
<g id="songs" class="node">
<title>songs</title>
<ellipse fill="none" stroke="black" stroke-width="0" cx="677.35" cy="-342.24" rx="177.47" ry="342.48"/>
<polygon fill="#1d71b8" stroke="transparent" points="554.35,-522.24 554.35,-582.24 801.35,-582.24 801.35,-522.24 554.35,-522.24"/>
<polygon fill="none" stroke="#29235c" points="554.35,-522.24 554.35,-582.24 801.35,-582.24 801.35,-522.24 554.35,-522.24"/>
<text text-anchor="start" x="572.91" y="-543.44" font-family="Helvetica,sans-Serif" font-weight="bold" font-size="32.00" fill="#ffffff"> &#160;&#160;&#160;&#160;&#160;&#160;songs &#160;&#160;&#160;&#160;&#160;&#160;</text>
<polygon fill="#e7e2dd" stroke="transparent" points="554.35,-462.24 554.35,-522.24 801.35,-522.24 801.35,-462.24 554.35,-462.24"/>
<polygon fill="none" stroke="#29235c" points="554.35,-462.24 554.35,-522.24 801.35,-522.24 801.35,-462.24 554.35,-462.24"/>
<text text-anchor="start" x="565.35" y="-483.44" font-family="Helvetica,sans-Serif" font-weight="bold" font-size="32.00" fill="#29235c">id</text>
<text text-anchor="start" x="590.24" y="-483.44" font-family="Helvetica,sans-Serif" font-size="32.00" fill="#29235c"> &#160;&#160;&#160;</text>
<text text-anchor="start" x="756.56" y="-483.44" font-family="Helvetica,sans-Serif" font-style="italic" font-size="32.00" fill="#29235c">int</text>
<polygon fill="#e7e2dd" stroke="transparent" points="554.35,-402.24 554.35,-462.24 801.35,-462.24 801.35,-402.24 554.35,-402.24"/>
<polygon fill="none" stroke="#29235c" points="554.35,-402.24 554.35,-462.24 801.35,-462.24 801.35,-402.24 554.35,-402.24"/>
<text text-anchor="start" x="565.35" y="-422.44" font-family="Helvetica,sans-Serif" font-size="32.00" fill="#29235c">album_id &#160;&#160;&#160;</text>
<text text-anchor="start" x="756.56" y="-423.44" font-family="Helvetica,sans-Serif" font-style="italic" font-size="32.00" fill="#29235c">int</text>
<polygon fill="#e7e2dd" stroke="transparent" points="554.35,-342.24 554.35,-402.24 801.35,-402.24 801.35,-342.24 554.35,-342.24"/>
<polygon fill="none" stroke="#29235c" points="554.35,-342.24 554.35,-402.24 801.35,-402.24 801.35,-342.24 554.35,-342.24"/>
<text text-anchor="start" x="565.35" y="-362.44" font-family="Helvetica,sans-Serif" font-size="32.00" fill="#29235c">title &#160;&#160;&#160;</text>
<text text-anchor="start" x="738.77" y="-363.44" font-family="Helvetica,sans-Serif" font-style="italic" font-size="32.00" fill="#29235c">text</text>
<polygon fill="#e7e2dd" stroke="transparent" points="554.35,-282.24 554.35,-342.24 801.35,-342.24 801.35,-282.24 554.35,-282.24"/>
<polygon fill="none" stroke="#29235c" points="554.35,-282.24 554.35,-342.24 801.35,-342.24 801.35,-282.24 554.35,-282.24"/>
<text text-anchor="start" x="565.35" y="-302.44" font-family="Helvetica,sans-Serif" font-size="32.00" fill="#29235c">year &#160;&#160;&#160;</text>
<text text-anchor="start" x="756.56" y="-303.44" font-family="Helvetica,sans-Serif" font-style="italic" font-size="32.00" fill="#29235c">int</text>
<polygon fill="#e7e2dd" stroke="transparent" points="554.35,-222.24 554.35,-282.24 801.35,-282.24 801.35,-222.24 554.35,-222.24"/>
<polygon fill="none" stroke="#29235c" points="554.35,-222.24 554.35,-282.24 801.35,-282.24 801.35,-222.24 554.35,-222.24"/>
<text text-anchor="start" x="565.23" y="-242.44" font-family="Helvetica,sans-Serif" font-size="32.00" fill="#29235c">performer &#160;&#160;&#160;</text>
<text text-anchor="start" x="739.06" y="-243.44" font-family="Helvetica,sans-Serif" font-style="italic" font-size="32.00" fill="#29235c">text</text>
<polygon fill="#e7e2dd" stroke="transparent" points="554.35,-162.24 554.35,-222.24 801.35,-222.24 801.35,-162.24 554.35,-162.24"/>
<polygon fill="none" stroke="#29235c" points="554.35,-162.24 554.35,-222.24 801.35,-222.24 801.35,-162.24 554.35,-162.24"/>
<text text-anchor="start" x="565.35" y="-182.44" font-family="Helvetica,sans-Serif" font-size="32.00" fill="#29235c">genre &#160;&#160;&#160;</text>
<text text-anchor="start" x="738.77" y="-183.44" font-family="Helvetica,sans-Serif" font-style="italic" font-size="32.00" fill="#29235c">text</text>
<polygon fill="#e7e2dd" stroke="transparent" points="554.35,-102.24 554.35,-162.24 801.35,-162.24 801.35,-102.24 554.35,-102.24"/>
<polygon fill="none" stroke="#29235c" points="554.35,-102.24 554.35,-162.24 801.35,-162.24 801.35,-102.24 554.35,-102.24"/>
<text text-anchor="start" x="565.35" y="-122.44" font-family="Helvetica,sans-Serif" font-size="32.00" fill="#29235c">duration &#160;&#160;&#160;</text>
<text text-anchor="start" x="738.77" y="-123.44" font-family="Helvetica,sans-Serif" font-style="italic" font-size="32.00" fill="#29235c">text</text>
<polygon fill="none" stroke="#29235c" stroke-width="2" points="552.85,-101.24 552.85,-583.24 801.85,-583.24 801.85,-101.24 552.85,-101.24"/>
</g>
<!-- playlist_and_song -->
<g id="playlist_and_song" class="node">
<title>playlist_and_song</title>
<ellipse fill="none" stroke="black" stroke-width="0" cx="1331.36" cy="-462.24" rx="287.17" ry="172.57"/>
<polygon fill="#1d71b8" stroke="transparent" points="1130.36,-522.24 1130.36,-582.24 1532.36,-582.24 1532.36,-522.24 1130.36,-522.24"/>
<polygon fill="none" stroke="#29235c" points="1130.36,-522.24 1130.36,-582.24 1532.36,-582.24 1532.36,-522.24 1130.36,-522.24"/>
<text text-anchor="start" x="1141.07" y="-543.44" font-family="Helvetica,sans-Serif" font-weight="bold" font-size="32.00" fill="#ffffff"> &#160;&#160;&#160;&#160;&#160;&#160;playlist_and_song &#160;&#160;&#160;&#160;&#160;&#160;</text>
<polygon fill="#e7e2dd" stroke="transparent" points="1130.36,-462.24 1130.36,-522.24 1532.36,-522.24 1532.36,-462.24 1130.36,-462.24"/>
<polygon fill="none" stroke="#29235c" points="1130.36,-462.24 1130.36,-522.24 1532.36,-522.24 1532.36,-462.24 1130.36,-462.24"/>
<text text-anchor="start" x="1141.36" y="-483.44" font-family="Helvetica,sans-Serif" font-weight="bold" font-size="32.00" fill="#29235c">id</text>
<text text-anchor="start" x="1166.25" y="-483.44" font-family="Helvetica,sans-Serif" font-size="32.00" fill="#29235c"> &#160;&#160;&#160;</text>
<text text-anchor="start" x="1487.57" y="-483.44" font-family="Helvetica,sans-Serif" font-style="italic" font-size="32.00" fill="#29235c">int</text>
<polygon fill="#e7e2dd" stroke="transparent" points="1130.36,-402.24 1130.36,-462.24 1532.36,-462.24 1532.36,-402.24 1130.36,-402.24"/>
<polygon fill="none" stroke="#29235c" points="1130.36,-402.24 1130.36,-462.24 1532.36,-462.24 1532.36,-402.24 1130.36,-402.24"/>
<text text-anchor="start" x="1141.36" y="-422.44" font-family="Helvetica,sans-Serif" font-size="32.00" fill="#29235c">playlist_id &#160;&#160;&#160;</text>
<text text-anchor="start" x="1487.57" y="-423.44" font-family="Helvetica,sans-Serif" font-style="italic" font-size="32.00" fill="#29235c">int</text>
<polygon fill="#e7e2dd" stroke="transparent" points="1130.36,-342.24 1130.36,-402.24 1532.36,-402.24 1532.36,-342.24 1130.36,-342.24"/>
<polygon fill="none" stroke="#29235c" points="1130.36,-342.24 1130.36,-402.24 1532.36,-402.24 1532.36,-342.24 1130.36,-342.24"/>
<text text-anchor="start" x="1141.36" y="-362.44" font-family="Helvetica,sans-Serif" font-size="32.00" fill="#29235c">song_id &#160;&#160;&#160;</text>
<text text-anchor="start" x="1487.57" y="-363.44" font-family="Helvetica,sans-Serif" font-style="italic" font-size="32.00" fill="#29235c">int</text>
<polygon fill="none" stroke="#29235c" stroke-width="2" points="1129.36,-341.24 1129.36,-583.24 1533.36,-583.24 1533.36,-341.24 1129.36,-341.24"/>
</g>
<!-- songs&#45;&gt;playlist_and_song -->
<!-- songs&#45;&gt;playlist_and_song -->
<g id="edge12" class="edge">
<title>songs:e&#45;&gt;playlist_and_song:w</title>
<path fill="none" stroke="#29235c" stroke-width="3" d="M802.35,-492.24C953.68,-492.24 973.69,-377.57 1119.13,-372.42"/>
<polygon fill="#29235c" stroke="#29235c" stroke-width="3" points="1119.42,-375.91 1129.36,-372.24 1119.3,-368.92 1119.42,-375.91"/>
<text text-anchor="middle" x="1135.58" y="-343.44" font-family="Helvetica,sans-Serif" font-size="32.00" fill="#29235c">*</text>
<text text-anchor="middle" x="811.24" y="-463.44" font-family="Helvetica,sans-Serif" font-size="32.00" fill="#29235c">1</text>
</g>
<!-- albums -->
<g id="albums" class="node">
<title>albums</title>
<ellipse fill="none" stroke="black" stroke-width="0" cx="179.61" cy="-579.24" rx="178.8" ry="214.92"/>
<polygon fill="#1d71b8" stroke="transparent" points="55.61,-669.24 55.61,-729.24 304.61,-729.24 304.61,-669.24 55.61,-669.24"/>
<polygon fill="none" stroke="#29235c" points="55.61,-669.24 55.61,-729.24 304.61,-729.24 304.61,-669.24 55.61,-669.24"/>
<text text-anchor="start" x="66.3" y="-690.44" font-family="Helvetica,sans-Serif" font-weight="bold" font-size="32.00" fill="#ffffff"> &#160;&#160;&#160;&#160;&#160;&#160;albums &#160;&#160;&#160;&#160;&#160;&#160;</text>
<polygon fill="#e7e2dd" stroke="transparent" points="55.61,-609.24 55.61,-669.24 304.61,-669.24 304.61,-609.24 55.61,-609.24"/>
<polygon fill="none" stroke="#29235c" points="55.61,-609.24 55.61,-669.24 304.61,-669.24 304.61,-609.24 55.61,-609.24"/>
<text text-anchor="start" x="66.61" y="-630.44" font-family="Helvetica,sans-Serif" font-weight="bold" font-size="32.00" fill="#29235c">id</text>
<text text-anchor="start" x="91.49" y="-630.44" font-family="Helvetica,sans-Serif" font-size="32.00" fill="#29235c"> &#160;&#160;&#160;</text>
<text text-anchor="start" x="259.82" y="-630.44" font-family="Helvetica,sans-Serif" font-style="italic" font-size="32.00" fill="#29235c">int</text>
<polygon fill="#e7e2dd" stroke="transparent" points="55.61,-549.24 55.61,-609.24 304.61,-609.24 304.61,-549.24 55.61,-549.24"/>
<polygon fill="none" stroke="#29235c" points="55.61,-549.24 55.61,-609.24 304.61,-609.24 304.61,-549.24 55.61,-549.24"/>
<text text-anchor="start" x="66.61" y="-569.44" font-family="Helvetica,sans-Serif" font-size="32.00" fill="#29235c">name &#160;&#160;&#160;</text>
<text text-anchor="start" x="242.03" y="-570.44" font-family="Helvetica,sans-Serif" font-style="italic" font-size="32.00" fill="#29235c">text</text>
<polygon fill="#e7e2dd" stroke="transparent" points="55.61,-489.24 55.61,-549.24 304.61,-549.24 304.61,-489.24 55.61,-489.24"/>
<polygon fill="none" stroke="#29235c" points="55.61,-489.24 55.61,-549.24 304.61,-549.24 304.61,-489.24 55.61,-489.24"/>
<text text-anchor="start" x="66.61" y="-509.44" font-family="Helvetica,sans-Serif" font-size="32.00" fill="#29235c">year &#160;&#160;&#160;</text>
<text text-anchor="start" x="259.82" y="-510.44" font-family="Helvetica,sans-Serif" font-style="italic" font-size="32.00" fill="#29235c">int</text>
<polygon fill="#e7e2dd" stroke="transparent" points="55.61,-429.24 55.61,-489.24 304.61,-489.24 304.61,-429.24 55.61,-429.24"/>
<polygon fill="none" stroke="#29235c" points="55.61,-429.24 55.61,-489.24 304.61,-489.24 304.61,-429.24 55.61,-429.24"/>
<text text-anchor="start" x="66.61" y="-449.44" font-family="Helvetica,sans-Serif" font-size="32.00" fill="#29235c">cover &#160;&#160;&#160;</text>
<text text-anchor="start" x="242.03" y="-450.44" font-family="Helvetica,sans-Serif" font-style="italic" font-size="32.00" fill="#29235c">text</text>
<polygon fill="none" stroke="#29235c" stroke-width="2" points="54.11,-428.24 54.11,-730.24 305.11,-730.24 305.11,-428.24 54.11,-428.24"/>
</g>
<!-- albums&#45;&gt;songs -->
<!-- albums&#45;&gt;songs -->
<g id="edge2" class="edge">
<title>albums:e&#45;&gt;songs:w</title>
<path fill="none" stroke="#29235c" stroke-width="3" d="M305.61,-639.24C445.59,-639.24 411.67,-442.22 543.16,-432.6"/>
<polygon fill="#29235c" stroke="#29235c" stroke-width="3" points="543.48,-436.09 553.35,-432.24 543.23,-429.1 543.48,-436.09"/>
<text text-anchor="middle" x="559.57" y="-403.44" font-family="Helvetica,sans-Serif" font-size="32.00" fill="#29235c">*</text>
<text text-anchor="middle" x="296.71" y="-610.44" font-family="Helvetica,sans-Serif" font-size="32.00" fill="#29235c">1</text>
</g>
<!-- albums&#45;&gt;user_album_likes -->
<!-- albums&#45;&gt;user_album_likes -->
<g id="edge4" class="edge">
<title>albums:e&#45;&gt;user_album_likes:w</title>
<path fill="none" stroke="#29235c" stroke-width="3" d="M305.61,-639.24C402.92,-639.24 380.29,-775.15 469.17,-784.71"/>
<polygon fill="#29235c" stroke="#29235c" stroke-width="3" points="469.18,-788.22 479.35,-785.24 469.54,-781.23 469.18,-788.22"/>
<text text-anchor="middle" x="485.57" y="-756.44" font-family="Helvetica,sans-Serif" font-size="32.00" fill="#29235c">*</text>
<text text-anchor="middle" x="314.5" y="-610.44" font-family="Helvetica,sans-Serif" font-size="32.00" fill="#29235c">1</text>
</g>
<!-- playlists&#45;&gt;playlist_and_song -->
<!-- playlists&#45;&gt;playlist_and_song -->
<g id="edge8" class="edge">
<title>playlists:e&#45;&gt;playlist_and_song:w</title>
<path fill="none" stroke="#29235c" stroke-width="3" d="M808.35,-1268.24C923.7,-1268.24 919.48,-1165.43 959.48,-1057.24 1058.09,-790.54 846.77,-440.89 1119.04,-432.4"/>
<polygon fill="#29235c" stroke="#29235c" stroke-width="3" points="1119.41,-435.89 1129.36,-432.24 1119.3,-428.89 1119.41,-435.89"/>
<text text-anchor="middle" x="1135.58" y="-403.44" font-family="Helvetica,sans-Serif" font-size="32.00" fill="#29235c">*</text>
<text text-anchor="middle" x="817.24" y="-1239.44" font-family="Helvetica,sans-Serif" font-size="32.00" fill="#29235c">1</text>
</g>
<!-- playlists&#45;&gt;collaborations -->
<!-- playlists&#45;&gt;collaborations -->
<g id="edge6" class="edge">
<title>playlists:e&#45;&gt;collaborations:w</title>
<path fill="none" stroke="#29235c" stroke-width="3" d="M808.35,-1268.24C973.51,-1268.24 990.1,-1406.39 1149.18,-1412.06"/>
<polygon fill="#29235c" stroke="#29235c" stroke-width="3" points="1149.3,-1415.56 1159.36,-1412.24 1149.42,-1408.56 1149.3,-1415.56"/>
<text text-anchor="middle" x="1165.58" y="-1421.84" font-family="Helvetica,sans-Serif" font-size="32.00" fill="#29235c">*</text>
<text text-anchor="middle" x="817.24" y="-1277.84" font-family="Helvetica,sans-Serif" font-size="32.00" fill="#29235c">1</text>
</g>
<!-- playlist_song_activities -->
<g id="playlist_song_activities" class="node">
<title>playlist_song_activities</title>
<ellipse fill="none" stroke="black" stroke-width="0" cx="1331.36" cy="-952.24" rx="335.75" ry="299.63"/>
<polygon fill="#1d71b8" stroke="transparent" points="1096.36,-1102.24 1096.36,-1162.24 1567.36,-1162.24 1567.36,-1102.24 1096.36,-1102.24"/>
<polygon fill="none" stroke="#29235c" points="1096.36,-1102.24 1096.36,-1162.24 1567.36,-1162.24 1567.36,-1102.24 1096.36,-1102.24"/>
<text text-anchor="start" x="1106.92" y="-1123.44" font-family="Helvetica,sans-Serif" font-weight="bold" font-size="32.00" fill="#ffffff"> &#160;&#160;&#160;&#160;&#160;&#160;playlist_song_activities &#160;&#160;&#160;&#160;&#160;&#160;</text>
<polygon fill="#e7e2dd" stroke="transparent" points="1096.36,-1042.24 1096.36,-1102.24 1567.36,-1102.24 1567.36,-1042.24 1096.36,-1042.24"/>
<polygon fill="none" stroke="#29235c" points="1096.36,-1042.24 1096.36,-1102.24 1567.36,-1102.24 1567.36,-1042.24 1096.36,-1042.24"/>
<text text-anchor="start" x="1107.36" y="-1063.44" font-family="Helvetica,sans-Serif" font-weight="bold" font-size="32.00" fill="#29235c">id</text>
<text text-anchor="start" x="1132.25" y="-1063.44" font-family="Helvetica,sans-Serif" font-size="32.00" fill="#29235c"> &#160;&#160;&#160;</text>
<text text-anchor="start" x="1522.57" y="-1063.44" font-family="Helvetica,sans-Serif" font-style="italic" font-size="32.00" fill="#29235c">int</text>
<polygon fill="#e7e2dd" stroke="transparent" points="1096.36,-982.24 1096.36,-1042.24 1567.36,-1042.24 1567.36,-982.24 1096.36,-982.24"/>
<polygon fill="none" stroke="#29235c" points="1096.36,-982.24 1096.36,-1042.24 1567.36,-1042.24 1567.36,-982.24 1096.36,-982.24"/>
<text text-anchor="start" x="1107.36" y="-1002.44" font-family="Helvetica,sans-Serif" font-size="32.00" fill="#29235c">playlist_id &#160;&#160;&#160;</text>
<text text-anchor="start" x="1522.57" y="-1003.44" font-family="Helvetica,sans-Serif" font-style="italic" font-size="32.00" fill="#29235c">int</text>
<polygon fill="#e7e2dd" stroke="transparent" points="1096.36,-922.24 1096.36,-982.24 1567.36,-982.24 1567.36,-922.24 1096.36,-922.24"/>
<polygon fill="none" stroke="#29235c" points="1096.36,-922.24 1096.36,-982.24 1567.36,-982.24 1567.36,-922.24 1096.36,-922.24"/>
<text text-anchor="start" x="1107.36" y="-942.44" font-family="Helvetica,sans-Serif" font-size="32.00" fill="#29235c">song_id &#160;&#160;&#160;</text>
<text text-anchor="start" x="1522.57" y="-943.44" font-family="Helvetica,sans-Serif" font-style="italic" font-size="32.00" fill="#29235c">int</text>
<polygon fill="#e7e2dd" stroke="transparent" points="1096.36,-862.24 1096.36,-922.24 1567.36,-922.24 1567.36,-862.24 1096.36,-862.24"/>
<polygon fill="none" stroke="#29235c" points="1096.36,-862.24 1096.36,-922.24 1567.36,-922.24 1567.36,-862.24 1096.36,-862.24"/>
<text text-anchor="start" x="1107.36" y="-882.44" font-family="Helvetica,sans-Serif" font-size="32.00" fill="#29235c">user_id &#160;&#160;&#160;</text>
<text text-anchor="start" x="1522.57" y="-883.44" font-family="Helvetica,sans-Serif" font-style="italic" font-size="32.00" fill="#29235c">int</text>
<polygon fill="#e7e2dd" stroke="transparent" points="1096.36,-802.24 1096.36,-862.24 1567.36,-862.24 1567.36,-802.24 1096.36,-802.24"/>
<polygon fill="none" stroke="#29235c" points="1096.36,-802.24 1096.36,-862.24 1567.36,-862.24 1567.36,-802.24 1096.36,-802.24"/>
<text text-anchor="start" x="1107.36" y="-822.44" font-family="Helvetica,sans-Serif" font-size="32.00" fill="#29235c">action &#160;&#160;&#160;</text>
<text text-anchor="start" x="1504.78" y="-823.44" font-family="Helvetica,sans-Serif" font-style="italic" font-size="32.00" fill="#29235c">text</text>
<polygon fill="#e7e2dd" stroke="transparent" points="1096.36,-742.24 1096.36,-802.24 1567.36,-802.24 1567.36,-742.24 1096.36,-742.24"/>
<polygon fill="none" stroke="#29235c" points="1096.36,-742.24 1096.36,-802.24 1567.36,-802.24 1567.36,-742.24 1096.36,-742.24"/>
<text text-anchor="start" x="1107.36" y="-762.44" font-family="Helvetica,sans-Serif" font-size="32.00" fill="#29235c">time &#160;&#160;&#160;</text>
<text text-anchor="start" x="1408.8" y="-763.44" font-family="Helvetica,sans-Serif" font-style="italic" font-size="32.00" fill="#29235c">timestamp</text>
<polygon fill="none" stroke="#29235c" stroke-width="2" points="1094.86,-741.24 1094.86,-1163.24 1567.86,-1163.24 1567.86,-741.24 1094.86,-741.24"/>
</g>
<!-- playlists&#45;&gt;playlist_song_activities -->
<!-- playlists&#45;&gt;playlist_song_activities -->
<g id="edge10" class="edge">
<title>playlists:e&#45;&gt;playlist_song_activities:w</title>
<path fill="none" stroke="#29235c" stroke-width="3" d="M808.35,-1268.24C975.77,-1268.24 926.58,-1022.63 1085.12,-1012.56"/>
<polygon fill="#29235c" stroke="#29235c" stroke-width="3" points="1085.47,-1016.05 1095.36,-1012.24 1085.25,-1009.05 1085.47,-1016.05"/>
<text text-anchor="middle" x="1101.58" y="-983.44" font-family="Helvetica,sans-Serif" font-size="32.00" fill="#29235c">*</text>
<text text-anchor="middle" x="799.45" y="-1239.44" font-family="Helvetica,sans-Serif" font-size="32.00" fill="#29235c">1</text>
</g>
</g>
</svg>
